<svg width="48" height="48" viewBox="0 0 48 48" fill="none" xmlns="http://www.w3.org/2000/svg">
<circle cx="24" cy="24" r="24" fill="#4A154B"/>
<path d="M15.3029 27.9577C15.3029 29.6923 13.886 31.1092 12.1515 31.1092C10.4169 31.1092 9 29.6923 9 27.9577C9 26.2231 10.4169 24.8062 12.1515 24.8062H15.3029V27.9577Z" fill="#E01E5A"/>
<path d="M16.8921 27.9576C16.8921 26.2231 18.309 24.8062 20.0436 24.8062C21.7781 24.8062 23.195 26.2231 23.195 27.9576V35.8484C23.195 37.5829 21.7781 38.9998 20.0436 38.9998C18.309 38.9998 16.8921 37.5829 16.8921 35.8484V27.9576Z" fill="#E01E5A"/>
<path d="M20.0436 15.303C18.309 15.303 16.8921 13.886 16.8921 12.1515C16.8921 10.4169 18.309 8.99994 20.0436 8.99994C21.7781 8.99994 23.195 10.4169 23.195 12.1515V15.303H20.0436Z" fill="#36C5F0"/>
<path d="M20.0424 16.8914C21.7769 16.8914 23.1939 18.3083 23.1939 20.0428C23.1939 21.7773 21.7769 23.1942 20.0424 23.1942H12.1515C10.4169 23.1942 9 21.7773 9 20.0428C9 18.3083 10.4169 16.8914 12.1515 16.8914H20.0424Z" fill="#36C5F0"/>
<path d="M32.6976 20.0428C32.6976 18.3083 34.1146 16.8914 35.8491 16.8914C37.5837 16.8914 39.0006 18.3083 39.0006 20.0428C39.0006 21.7773 37.5837 23.1942 35.8491 23.1942H32.6976V20.0428Z" fill="#2EB67D"/>
<path d="M31.1107 20.0423C31.1107 21.7769 29.6937 23.1938 27.9592 23.1938C26.2247 23.1938 24.8077 21.7769 24.8077 20.0423V12.1514C24.8077 10.4169 26.2247 8.99994 27.9592 8.99994C29.6937 8.99994 31.1107 10.4169 31.1107 12.1514V20.0423Z" fill="#2EB67D"/>
<path d="M27.9558 32.6972C29.6903 32.6972 31.1073 34.1142 31.1073 35.8487C31.1073 37.5833 29.6903 39.0003 27.9558 39.0003C26.2213 39.0003 24.8043 37.5833 24.8043 35.8487V32.6972H27.9558Z" fill="#ECB22E"/>
<path d="M27.9598 31.1092C26.2253 31.1092 24.8083 29.6923 24.8083 27.9577C24.8083 26.2231 26.2253 24.8062 27.9598 24.8062H35.8507C37.5853 24.8062 39.0022 26.2231 39.0022 27.9577C39.0022 29.6923 37.5853 31.1092 35.8507 31.1092H27.9598Z" fill="#ECB22E"/>
</svg>
