<svg width="48" height="48" viewBox="0 0 48 48" fill="none" xmlns="http://www.w3.org/2000/svg">
<circle cx="24" cy="24" r="24" fill="#00ACED"/>
<path d="M18.8612 35.254C29.3067 35.254 35.0224 26.5918 35.0224 19.0927C35.0224 18.849 35.0224 18.6053 35.0113 18.3617C36.119 17.5641 37.0827 16.5561 37.847 15.4152C36.8279 15.8693 35.7313 16.1684 34.5793 16.3124C35.7535 15.6146 36.6507 14.4958 37.0827 13.1666C35.9861 13.8201 34.7676 14.2853 33.4716 14.5401C32.4304 13.4324 30.9572 12.7457 29.3288 12.7457C26.1941 12.7457 23.6464 15.2933 23.6464 18.4281C23.6464 18.8712 23.7018 19.3032 23.7904 19.7241C19.0716 19.4915 14.8845 17.2207 12.0821 13.7869C11.5947 14.6287 11.3178 15.6035 11.3178 16.6447C11.3178 18.6164 12.3258 20.3555 13.8433 21.3746C12.9128 21.3413 12.0378 21.0866 11.2735 20.6657C11.2735 20.6878 11.2735 20.71 11.2735 20.7432C11.2735 23.4903 13.2341 25.7943 15.8261 26.3149C15.3498 26.4478 14.8513 26.5143 14.3307 26.5143C13.9652 26.5143 13.6107 26.481 13.2673 26.4146C13.9873 28.6743 16.0919 30.3137 18.5732 30.358C16.6236 31.8866 14.1756 32.7949 11.5172 32.7949C11.063 32.7949 10.6088 32.7727 10.1658 32.7173C12.6692 34.3124 15.6599 35.254 18.8612 35.254Z" fill="white"/>
</svg>
